<svg width="931" height="114" viewBox="0 0 931 114" fill="none" xmlns="http://www.w3.org/2000/svg">
<path d="M881.459 24.5424C881.399 24.3384 885.78 22.6277 891.516 21.0304C905.796 17.0531 918.393 16.5904 918.421 16.8291C918.432 16.9277 916.28 17.0944 910.595 18.0717C893.58 20.9944 881.559 24.8757 881.459 24.5424Z" fill="#F57483"/>
<path d="M881.811 24.6117C881.771 24.4023 886.3 23.1357 892.167 22.117C906.772 19.5797 919.352 20.373 919.356 20.6117C919.357 20.7117 917.199 20.6637 911.444 21.0704C894.224 22.2864 881.876 24.953 881.811 24.6117Z" fill="#F57483"/>
<path d="M894.894 25.8578L895.111 25.9525L895.255 26.0152C895.816 25.9459 896.378 25.9392 896.926 25.9992C899.032 26.2299 901.396 27.4645 902.544 28.9352C902.867 29.3485 903.234 29.9699 903.151 30.5832C903.05 31.3259 902.332 32.0845 901.191 32.6592C901.728 32.5218 902.635 32.0832 903.116 31.3098C903.22 31.1405 903.396 30.8512 903.416 30.4458C903.436 30.0498 903.295 29.7365 903.186 29.4979C903.018 29.1365 902.814 28.8925 902.699 28.7618C901.412 27.3085 899.859 26.5605 899.859 26.5605C899.344 26.3112 898.439 25.8845 897.159 25.7499C896.328 25.6645 895.616 25.7299 895.091 25.8219C895.022 25.8325 894.956 25.8445 894.894 25.8578Z" fill="#F57483"/>
<path d="M895.121 26.0342C895.166 26.0275 895.21 26.0208 895.254 26.0155C895.709 25.9582 896.165 25.9448 896.614 25.9742C896.753 25.6555 896.729 25.2395 896.466 24.9715C896.434 24.9395 896.402 24.9115 896.369 24.8875C895.904 24.8755 895.434 24.9035 894.968 24.9702L895.09 25.8222L895.11 25.9528L895.121 26.0342Z" fill="#F57483"/>
<path d="M898.877 34.5225C900.579 34.2265 901.949 33.6011 902.88 32.8318C903.649 32.1945 904.115 31.4598 904.215 30.7291C904.321 29.9491 904.037 29.0998 903.392 28.2744C902.644 27.3171 901.492 26.4638 900.199 25.8531C900.907 26.2971 901.432 26.7225 901.8 27.0451C902.343 27.5265 902.844 28.0625 903.252 28.7985C903.508 29.2638 903.752 29.7064 903.765 30.2598C903.772 30.6011 903.7 31.3971 902.544 32.5025C901.259 33.7305 899.768 34.2571 898.877 34.5225Z" fill="#F57483"/>
<path d="M896.061 34.6609C896.142 34.6169 896.221 34.5703 896.301 34.5236C896.809 34.2223 897.276 33.9049 897.692 33.5889C899.173 32.4783 900.062 31.4023 900.209 31.2183C900.225 31.2009 900.232 31.1903 900.232 31.1903C900.232 31.1903 900.374 31.4796 900.389 31.8623C900.406 32.3663 900.265 32.7929 900.109 33.1049C900.214 33.0703 900.317 33.0343 900.417 32.9969C900.692 32.8929 900.95 32.7809 901.19 32.6596C902.332 32.0849 903.049 31.3263 903.15 30.5836C903.233 29.9703 902.866 29.3489 902.544 28.9356C901.396 27.4649 899.032 26.2303 896.925 25.9996C896.821 25.9876 896.718 25.9796 896.614 25.9743C896.165 25.9449 895.709 25.9583 895.254 26.0156C895.21 26.0209 895.166 26.0276 895.121 26.0343L895.11 25.9529L895.09 25.8223L894.968 24.9703C895.434 24.9036 895.904 24.8756 896.369 24.8876C896.594 24.8929 896.818 24.9076 897.041 24.9316C898.096 25.0476 899.191 25.3756 900.199 25.8529C901.492 26.4636 902.644 27.3169 903.392 28.2743C904.037 29.0996 904.321 29.9489 904.214 30.7289C904.114 31.4596 903.649 32.1943 902.88 32.8316C901.949 33.6009 900.578 34.2263 898.877 34.5223C898.876 34.5236 898.873 34.5236 898.873 34.5236C898.061 34.6663 897.176 34.7316 896.226 34.7036C896.172 34.7023 896.116 34.7009 896.06 34.6983L896.061 34.6609Z" fill="#F57483"/>
<path d="M869.158 30.3923C869.104 30.1696 869.141 29.939 869.261 29.7443C869.311 29.663 869.373 29.591 869.445 29.531C869.544 29.4496 869.663 29.3896 869.792 29.359C870.015 29.3056 870.245 29.3416 870.44 29.4616C870.636 29.5816 870.773 29.771 870.825 29.9936C870.88 30.2163 870.843 30.447 870.723 30.6416C870.603 30.8376 870.414 30.975 870.191 31.027C869.968 31.0803 869.737 31.0443 869.543 30.9243C869.347 30.8043 869.211 30.615 869.158 30.3923ZM869.199 31.483C869.544 31.695 869.949 31.7603 870.344 31.6656H870.343C870.572 31.611 870.782 31.507 870.958 31.3603C871.084 31.2563 871.193 31.1297 871.281 30.9857C871.431 30.743 871.503 30.4696 871.501 30.1923L871.92 30.0923C872.251 30.743 873.189 31.2203 874.3 31.051C874.203 30.959 874.112 30.8603 874.025 30.7563C873.765 30.4403 873.568 30.095 873.43 29.7323L874.317 29.5203L874.166 28.8816L873.252 29.1003C873.167 28.6456 873.163 28.1803 873.249 27.7296C873.019 27.787 872.68 27.9163 872.377 28.2083C872.035 28.539 871.815 29.0083 871.788 29.4496L871.363 29.551C871.239 29.2856 871.04 29.0603 870.784 28.903C870.44 28.691 870.033 28.627 869.64 28.7203C869.247 28.815 868.913 29.0563 868.701 29.4003C868.489 29.7456 868.426 30.151 868.519 30.5443C868.614 30.9376 868.855 31.271 869.199 31.483Z" fill="#F57483"/>
<path d="M883.437 28.9306C883.549 28.9399 883.716 28.3679 883.755 27.8666C883.829 26.9439 883.471 26.2492 883.291 25.9132C883.036 25.4346 882.683 24.7719 882.108 24.4105C882.104 24.4292 882.103 24.4479 882.104 24.4652C882.104 24.5452 882.14 24.6172 882.184 24.6785C882.156 24.6825 882.127 24.6879 882.099 24.6945C881.96 24.5945 881.777 24.4812 881.571 24.4159C881.209 24.3026 880.783 24.3319 880.416 24.4892C880.575 24.4572 880.763 24.4385 880.963 24.4572C881.936 24.5479 882.593 25.4745 882.74 25.6932C883.703 27.1305 883.24 28.9146 883.437 28.9306Z" fill="#F57483"/>
<path d="M873.249 27.7298C873.403 26.9244 873.828 26.1645 874.509 25.6005C875.191 25.0351 876.017 24.7604 876.839 24.7591L878.476 22.7778L879.003 22.1404C879.428 21.6458 879.861 21.1605 880.291 20.6698L881.613 19.2284C883.393 17.3231 885.249 15.4938 887.172 13.7391C889.1 11.9871 891.087 10.3111 893.143 8.71912C895.201 7.12979 897.317 5.61912 899.484 4.18312C897.361 5.67779 895.293 7.25112 893.291 8.90446C891.291 10.5525 889.355 12.2791 887.496 14.0818C885.628 15.8831 883.84 17.7565 882.131 19.7005L880.868 21.1698C880.459 21.6711 880.041 22.1658 879.632 22.6671L879.164 23.2764L880.075 22.4111L881.06 21.5098C881.391 21.2071 881.719 20.9071 882.049 20.6124L883.055 19.7311C883.389 19.4391 883.717 19.1405 884.056 18.8525L885.077 17.9871C887.791 15.6885 890.587 13.4884 893.456 11.3911C896.328 9.28978 899.276 7.30312 902.285 5.41512C905.293 3.52712 908.365 1.74178 911.495 0.0591124C908.405 1.81245 905.373 3.66178 902.413 5.61245C899.452 7.56445 896.552 9.61379 893.739 11.7658C891.033 13.8431 888.395 16.0018 885.84 18.2525C886.889 17.4378 887.947 16.6311 889.016 15.8444C890.341 14.8698 891.683 13.9178 893.041 12.9911C894.399 12.0631 895.768 11.1645 897.157 10.2845C898.548 9.40445 899.953 8.55511 901.371 7.72711C904.207 6.06978 907.103 4.51912 910.041 3.06712C907.139 4.58579 904.283 6.20844 901.491 7.92444C900.093 8.78844 898.716 9.67245 897.345 10.5804C895.984 11.4871 894.643 12.4231 893.308 13.3738C891.975 14.3324 890.665 15.3151 889.371 16.3138C888.073 17.3151 886.799 18.3418 885.537 19.3871C885.443 19.4671 885.34 19.5551 885.241 19.6391C886.292 18.9111 887.345 18.1951 888.411 17.5005C891.668 15.3605 895.012 13.3711 898.417 11.4964C901.827 9.61912 905.295 7.86979 908.832 6.25246C909.713 5.84712 910.607 5.46178 911.488 5.06445C911.931 4.86312 912.381 4.67778 912.828 4.48978L914.844 3.64578C915.065 3.54845 915.299 3.46445 915.52 3.37645L916.88 2.84445L919.588 1.78712L916.896 2.90045L915.552 3.45512C915.331 3.55112 915.105 3.63644 914.884 3.74044L914.216 4.03379L912.892 4.62444C912.445 4.82044 912.003 5.01378 911.564 5.22578C910.683 5.63911 909.805 6.04045 908.932 6.46178C905.436 8.15111 902.003 9.96579 898.645 11.9045C895.292 13.8458 892 15.8938 888.807 18.0885C887.848 18.7391 886.897 19.4071 885.957 20.0858C887.276 19.2858 888.603 18.5018 889.943 17.7284C893.852 15.4711 897.833 13.3311 901.872 11.3018C902.373 11.0418 902.879 10.8005 903.389 10.5485L904.911 9.80578C905.925 9.32044 906.941 8.82712 907.969 8.35379C910.016 7.39912 912.079 6.48311 914.151 5.59111C916.221 4.69911 918.312 3.84311 920.408 3.00578C922.508 2.18178 924.615 1.38045 926.739 0.611114C924.631 1.42045 922.536 2.24845 920.452 3.11378C918.373 3.98978 916.297 4.87779 914.247 5.80446C912.192 6.73646 910.144 7.68311 908.121 8.67778C907.105 9.16311 906.099 9.67244 905.091 10.1738L903.581 10.9431C903.084 11.2004 902.577 11.4565 902.08 11.7218C899.536 13.0511 897.088 14.5645 894.632 16.0525C895.612 15.5871 896.608 15.1378 897.596 14.6804C898.667 14.2018 899.743 13.7204 900.825 13.2458L902.445 12.5471L903.256 12.1978L904.071 11.8604C908.419 10.0431 912.815 8.35378 917.252 6.78978C921.697 5.23378 926.183 3.80445 930.7 2.49378C926.203 3.88045 921.745 5.38445 917.332 7.01111C912.92 8.64578 908.564 10.4071 904.255 12.2951L903.445 12.6444L902.647 13.0058L901.037 13.7325C899.967 14.2178 899.14 14.5365 898.073 15.0338C898.041 15.0498 898.097 15.0965 898.079 15.1165C899.568 14.4778 900.735 14.0151 902.249 13.4404C910.373 10.3284 918.809 8.05246 927.36 6.53646C918.837 8.20712 910.463 10.6298 902.417 13.8751C898.397 15.4951 894.465 17.3218 890.637 19.3538C889.641 19.8818 888.651 20.4231 887.667 20.9791C890.757 19.6378 893.881 18.3671 897.032 17.1871C903.437 14.7725 909.964 12.6978 916.575 10.9498C910.004 12.8471 903.535 15.0724 897.201 17.6231C892.943 19.3391 888.749 21.1991 884.62 23.2005C884.212 23.4005 883.808 23.6058 883.401 23.8071C883.763 23.9031 884.079 24.1498 884.296 24.3178C884.38 24.3045 884.464 24.2924 884.545 24.2791C884.531 24.2271 884.524 24.1724 884.537 24.1111L884.539 24.1098C884.611 23.8324 885.133 23.6511 885.588 23.6924C885.647 23.6978 885.703 23.7071 885.756 23.7205C885.759 23.7205 885.759 23.7218 885.761 23.7218C886.011 23.7738 886.224 23.8871 886.396 23.9951C886.477 23.9831 886.556 23.9711 886.635 23.9604C886.623 23.9364 886.611 23.9084 886.604 23.8791C886.604 23.8791 886.604 23.8791 886.603 23.8791C886.593 23.8431 886.589 23.8044 886.591 23.7644C886.603 23.4871 886.941 23.2204 887.256 23.1324C887.352 23.1044 887.451 23.0938 887.548 23.0924C887.548 23.0924 887.548 23.0938 887.549 23.0938C888.091 23.0951 888.648 23.4578 888.953 23.6644C888.981 23.6618 889.008 23.6591 889.035 23.6578C888.981 23.6044 888.925 23.5405 888.897 23.4685L888.896 23.4671C888.881 23.4285 888.873 23.3925 888.873 23.3511C888.877 23.1511 889.116 22.9578 889.332 22.8898C889.577 22.8124 889.852 22.8818 890.112 23.0084C890.423 23.1604 890.715 23.3938 890.92 23.5631C890.967 23.5644 891.013 23.5658 891.06 23.5671C891.003 23.4965 890.948 23.4178 890.929 23.3418C890.928 23.3418 890.928 23.3418 890.928 23.3418C890.916 23.3031 890.915 23.2644 890.927 23.2298C891.003 23.0111 891.583 22.9871 891.943 23.0444C892.153 23.0791 892.341 23.1471 892.511 23.2365C892.853 23.4165 893.112 23.6751 893.279 23.8738C893.348 23.8924 893.417 23.9125 893.485 23.9338C893.484 23.9098 893.485 23.8858 893.491 23.8658C893.496 23.8364 893.505 23.8138 893.521 23.7924C893.664 23.6191 894.221 23.7885 894.583 24.0525C894.819 24.2258 894.971 24.4364 895.068 24.6244C895.605 24.9671 895.737 25.2604 895.773 25.4298C895.78 25.4578 895.783 25.4831 895.784 25.5045C895.869 26.3765 894.287 27.1818 893.679 27.4938C892.208 28.2484 890.887 28.3791 890.732 28.3951C888.595 28.6111 884.972 29.2124 880.1 30.0898C879.88 30.5191 879.575 30.9124 879.18 31.2404C877.789 32.3911 875.799 32.3418 874.472 31.2071C874.413 31.1591 874.355 31.1058 874.299 31.0511C874.203 30.9591 874.112 30.8604 874.025 30.7564C873.3 29.8804 873.051 28.7658 873.249 27.7298Z" fill="#F57483"/>
<path d="M888.041 27.4861C888.137 27.4701 888.181 26.6101 887.879 25.7287C887.585 24.8741 887.059 24.2714 886.604 23.8807C886.611 23.9087 886.623 23.9367 886.635 23.9607C886.556 23.9714 886.477 23.9834 886.396 23.9967C886.224 23.8874 886.011 23.7741 885.761 23.7221C885.892 23.7861 886.029 23.8647 886.168 23.9607C887.809 25.1021 887.88 27.5141 888.041 27.4861Z" fill="#F57483"/>
<path d="M890.568 27.2798C890.672 27.2571 890.681 26.3584 890.337 25.4411C889.999 24.5398 889.424 23.8998 888.897 23.4691C888.925 23.5411 888.981 23.6051 889.035 23.6584C889.008 23.6598 888.981 23.6624 888.953 23.6651C888.648 23.4584 888.091 23.0958 887.549 23.0944C887.759 23.1664 888.005 23.2718 888.261 23.4291C890.168 24.6051 890.387 27.3224 890.568 27.2798Z" fill="#F57483"/>
<path d="M892.005 27.0341C892.089 27.0261 892.18 26.2514 892 25.4168C891.805 24.5114 891.355 23.8221 890.929 23.3421C890.948 23.4181 891.003 23.4968 891.06 23.5674C891.013 23.5661 890.966 23.5648 890.92 23.5634C890.714 23.3941 890.422 23.1608 890.112 23.0088C890.277 23.1288 890.445 23.2688 890.604 23.4354C891.989 24.8648 891.863 27.0488 892.005 27.0341Z" fill="#F57483"/>
<path d="M893.244 26.8696C893.329 26.891 893.677 26.2056 893.732 25.379C893.769 24.7923 893.651 24.279 893.491 23.8656C893.485 23.8856 893.484 23.9096 893.485 23.9336C893.417 23.9123 893.348 23.8923 893.279 23.8736C893.112 23.675 892.853 23.4163 892.511 23.2363C892.717 23.3923 892.919 23.591 893.079 23.847C893.852 25.0896 893.111 26.8376 893.244 26.8696Z" fill="#F57483"/>
<path d="M146.055 34.8366C186.151 26.2286 226.071 16.6753 265.423 5.13393C241.82 13.7766 233.964 17.2993 210.521 30.5859C206.453 32.8913 202.395 35.3139 198.343 37.7579C181.085 37.0139 162.297 35.9233 146.055 34.8366ZM90.6635 41.4633C84.0264 42.3713 77.3739 43.1166 70.7029 43.6193C64.0322 44.1233 57.3436 44.3846 50.6353 44.3259C45.4009 44.2179 40.0619 44.1152 34.752 43.7246C31.2119 43.4646 27.6853 43.0766 24.2113 42.4739C19.0009 41.5699 13.9092 40.1833 9.07176 38.0219C7.94259 37.4499 6.97592 36.8939 6.16551 36.3566C5.35562 35.8179 4.70248 35.2953 4.19936 34.7886C3.9478 34.5353 3.73374 34.2859 3.55666 34.0406C3.20196 33.5499 2.99519 33.0739 2.92906 32.6126C2.89624 32.3819 2.89832 32.1553 2.9353 31.9313C2.97228 31.7073 3.04363 31.4873 3.14832 31.2713C3.46395 30.6206 4.0827 30.0006 4.98426 29.4086C6.18634 28.6179 7.89155 27.8779 10.0499 27.1793C11.7452 26.7139 13.4608 26.3526 15.1911 26.0726C20.3816 25.2339 25.7061 25.1366 31.0233 25.1953C39.2619 25.3273 47.9827 26.0433 56.702 26.9713C61.0619 27.4366 65.4207 27.9526 69.7187 28.4766C71.8671 28.7379 74.0009 29.0019 76.1113 29.2606C78.2223 29.5206 80.3103 29.7753 82.3676 30.0206C89.3072 30.7819 102.218 32.0059 113.993 33.1259C116.711 33.3846 119.368 33.6379 121.877 33.8779C124.877 34.1646 127.652 34.4326 130.081 34.6726C129.409 34.7966 128.738 34.9246 128.066 35.0486C128.066 35.0486 128.074 35.0899 128.077 35.1046C122.236 36.2059 116.39 37.3059 110.528 38.3299C103.921 39.4846 97.3004 40.5553 90.6635 41.4633ZM133.103 81.8576L133.015 82.4806L127.681 86.1551C127.681 86.1551 126.643 85.415 125.755 85.5336C124.865 85.6514 122.109 86.3634 122.109 86.3634C122.109 86.3634 121.398 86.0379 120.39 86.3634C119.382 86.6884 114.936 87.4899 114.285 87.2524C113.633 87.0155 113.455 86.9275 113.662 86.542C113.87 86.1551 113.899 86.0967 114.018 85.6514C114.137 85.2071 114.255 85.3858 114.166 84.9404C114.077 84.4951 112.862 81.4139 113.159 81.4431C113.455 81.4738 119.915 82.0363 121.398 81.918C122.879 81.7994 136.335 79.4286 136.335 79.4286C133.103 81.8576 133.103 81.8576 133.103 81.8576ZM225.267 38.6232C217.848 38.4979 209.347 38.2179 200.391 37.8446C203.937 35.6953 207.483 33.5393 211.041 31.4979C236.82 16.7059 242.349 14.8526 270.064 3.78459C270.46 3.66726 270.857 3.55791 271.253 3.43925C270.927 3.52858 270.599 3.60992 270.272 3.69926C271.097 3.35392 272.081 2.70725 270.065 3.43925C268.971 3.83791 267.96 4.20726 266.927 4.58459C222.997 16.3966 178.503 25.6939 133.789 33.9806C132.937 33.9193 132.06 33.8566 131.234 33.7953L65.4968 26.0113C54.3733 24.6633 -0.638658 16.1326 0.00561295 33.3113C3.59051 43.2646 23.8182 45.9246 33.2425 47.0179C67.9187 50.6153 102.46 44.0259 136.408 37.7939C153.144 39.5073 172.567 40.8566 191.872 41.7193C178.823 49.7979 165.896 58.3353 153.288 66.6886C150.889 68.2766 148.224 70.1272 145.628 71.8112C145.071 71.6286 144.487 71.4419 144.397 71.4272C144.219 71.3966 143.212 71.3672 142.529 71.5446C141.848 71.7232 139.448 72.7006 139.448 72.7006L137.907 72.9966L137.699 72.4926C137.699 72.4926 134.884 72.6713 134.172 72.5833C133.461 72.4926 120.332 72.9086 120.124 72.9086C119.918 72.9086 119.502 72.7899 119.176 72.7006C118.85 72.6113 117.043 73.1152 117.043 73.1152C117.043 73.1152 116.509 72.8192 116.213 72.4632C115.917 72.1072 114.197 72.1072 114.197 72.1072L112.686 71.5446C112.686 71.5446 113.249 71.4273 113.456 71.0713C113.663 70.7153 113.515 69.1446 113.515 69.1446C113.515 69.1446 113.812 68.7593 113.782 68.5219C113.753 68.2846 113.249 67.8099 113.249 67.8099C113.249 67.8099 113.575 67.7512 113.842 67.5739C114.108 67.3952 113.96 66.2406 113.96 66.2406C113.96 66.2406 114.76 66.0913 114.849 65.6179C114.938 65.1433 113.663 63.7499 113.663 63.7499C113.663 63.7499 113.545 63.1579 113.663 62.8606C113.782 62.5646 113.337 61.4392 113.337 61.4392C113.337 61.4392 119.443 58.8312 118.732 57.6459C118.021 56.4592 114.701 57.3486 112.686 58.2379C112.686 58.2379 110.106 55.5419 108.862 55.1859C107.617 54.8299 104.653 55.3032 103.408 56.0739C102.163 56.8459 99.6441 60.4019 99.5853 61.0833C99.5259 61.7646 99.6739 61.8832 99.6441 62.3272C99.6149 62.7726 99.378 64.8766 99.378 64.8766C99.378 64.8766 99.1405 65.4992 98.8441 65.7952C98.5477 66.0912 97.9551 66.3886 97.2436 66.7739C96.5327 67.1579 94.9916 67.6032 94.7551 67.8406C94.5176 68.0779 94.6061 68.5512 94.0728 69.4406C93.5395 70.3299 92.1468 68.8473 91.702 69.2033C91.2572 69.5593 91.1092 71.2486 90.8723 73.5312C90.6354 75.8126 92.1468 75.5752 92.1468 75.5752C92.1468 75.5752 91.2572 77.0566 90.7832 78.0646C90.3092 79.0726 87.7603 83.2817 87.5827 83.9926C87.4045 84.703 87.5234 85.118 87.5234 86.4232C87.5234 87.7275 87.2264 87.3112 87.0488 87.8446C86.8712 88.379 85.5078 98.0404 85.5078 98.5738C85.5078 99.1071 85.4488 98.8696 85.2119 99.8779C84.9744 100.886 85.2119 101.359 85.2119 101.359C85.2119 101.359 84.6785 102.188 84.2045 103.019C83.7296 103.849 83.8483 103.671 83.2561 104.323C82.6629 104.975 82.1296 105.39 81.6551 105.924C81.2707 106.357 80.4983 108.228 80.2187 108.922C78.3192 108.652 76.89 108.383 76.4067 108.134C77.0062 107.971 79.5176 107.914 79.5701 107.911C79.552 107.909 74.963 107.226 75.7796 108.294C76.0734 108.678 77.702 109.098 79.692 109.476C87.0061 111.207 106.267 112.246 108.281 110.076C109.163 109.128 103.191 109.428 103.173 109.428C103.21 109.431 104.443 109.528 105.384 109.652C106.542 109.803 107.453 110.002 106.353 110.297C105.426 110.543 104.185 110.709 102.745 110.806C102.779 110.779 102.793 110.751 102.786 110.724C102.638 110.162 102.015 107.79 102.015 107.79C102.015 107.79 102.283 107.702 102.846 107.286C103.409 106.873 103.231 105.924 103.231 105.924C103.231 105.924 104.327 106.398 104.802 106.221C105.275 106.042 105.394 105.035 105.809 103.909C106.224 102.782 107.587 101.063 108.062 100.234C108.536 99.403 110.611 95.7874 110.611 95.7874C110.611 95.7874 114.167 95.491 115.411 95.1352C116.657 94.7806 121.457 93.3576 121.457 93.3576L122.732 92.6456C122.732 92.6456 124.229 92.7942 124.673 92.7645C125.118 92.7353 125.444 92.1123 125.444 92.1123C125.444 92.1123 125.562 92.1727 126.17 91.9645C126.778 91.7566 126.644 91.0764 126.644 91.0764C126.644 91.0764 126.748 91.1191 127.252 90.8379C127.755 90.5566 127.37 89.8754 127.37 89.8754C127.37 89.8754 127.77 90.3046 128.407 89.8003C129.045 89.2967 128.171 88.1275 128.171 88.1275C128.171 88.1275 128.407 88.0832 128.541 87.8446C128.674 87.6071 128.363 87.4593 128.363 87.4593L131.742 84.8218L131.979 85.503C131.979 85.503 131.208 86.3634 131.445 87.6967C131.682 89.0311 133.431 90.7483 135.684 89.8603C137.936 88.9712 138.915 86.7483 137.344 84.7634C135.772 82.7764 133.52 83.903 133.52 83.903L133.343 83.3994L134.053 82.8363L134.824 82.6576L141.344 77.9766L143.625 76.6126C143.625 76.6126 143.983 76.9086 144.516 76.7312C145.049 76.5539 145.139 75.7833 145.139 75.7833C145.139 75.7833 145.345 75.9019 145.849 75.9019C146.353 75.9019 146.264 74.8939 146.264 74.8939C146.264 74.8939 147.272 75.3379 147.776 75.0419C148.279 74.7459 147.776 73.7979 147.776 73.7979L146.987 72.5926C149.392 71.0032 151.831 69.3019 154.043 67.8232C167.069 59.1152 180.427 50.1953 193.912 41.8006C204.564 42.2579 215.156 42.5739 225.203 42.7086C238.304 42.6246 255.971 43.0046 273.011 41.8326L274.601 37.8019C258.217 39.0086 241.704 38.8032 225.267 38.6232Z" fill="#5DA477"/>
<path d="M90.3902 112.315C86.6689 111.983 82.9646 111.512 79.5933 110.759C76.1829 109.998 73.346 109.233 71.5913 107.561C72.0506 108.791 73.9876 109.578 76.2152 110.303C80.8173 111.802 88.4048 112.863 94.9329 113.026C99.534 113.195 104.066 113.01 107.28 112.44C109.587 112.031 111.614 111.523 112.24 110.367C110.27 111.779 107.355 112.142 103.871 112.423C99.6356 112.766 94.9605 112.611 90.3902 112.315Z" fill="#5DA477"/>
<path d="M568.388 42.2218C568.66 41.9391 568.795 41.6285 568.856 41.3098C571.991 35.7698 577.563 34.9111 576.109 38.2005C574.911 40.8551 570.671 42.7458 567.949 43.6138C568.029 43.1471 568.203 42.6765 568.388 42.2218ZM495.121 47.2978C494.793 47.5111 493.667 48.1885 493.293 48.1618C493.003 48.1338 492.927 47.9165 492.9 47.6191C492.801 46.4591 493.608 44.5925 494.801 42.9111C495.032 42.6911 495.268 42.4845 495.496 42.2578C495.748 42.0085 495.9 41.7351 495.98 41.4511C497.119 40.2405 498.423 39.3311 499.637 39.2271C500.795 39.1485 501.443 40.7685 501.525 41.7711C499.712 43.5885 497.223 45.9151 495.121 47.2978ZM427.675 53.2245C426.687 53.2805 425.46 53.1138 424.925 52.3845C423.876 51.0338 426.923 49.5711 428.093 49.1365C429.96 48.4311 432.144 48.1618 434.153 48.0231C432.851 50.4591 430.416 53.0898 427.675 53.2245ZM347.233 43.7751C345.727 42.1271 344.807 39.0925 345.723 37.3885C346.34 36.1965 349.068 38.3325 347.233 43.7751ZM340.556 38.4978C339.972 42.0991 341.635 45.9938 344.316 48.2991C339.092 52.9511 333.759 47.1071 340.556 38.4978ZM321.629 22.3098C322.324 22.0405 323.168 21.8218 323.84 21.9298C325.817 22.2271 324.381 25.0711 323.511 26.3951C320.817 30.5898 314.209 34.9525 309.608 36.9805C311.633 32.0525 316.188 24.4458 321.629 22.3098ZM273.693 37.5231C275.497 32.8125 277.971 27.7218 281.088 23.8511C282.384 22.2511 284.559 20.1938 286.581 20.1151C287.643 20.0871 288.268 20.6818 288.352 21.6845C288.589 24.2271 285.577 27.6938 283.583 29.5911C280.56 32.4885 277.197 35.2498 273.693 37.5231ZM270.019 57.3925C269.705 56.7431 269.691 54.9845 269.708 54.4138C269.764 51.6805 270.34 48.6205 271.084 45.7525C274.985 48.7565 272.528 56.3111 270.019 57.3925ZM597.46 39.1991C591.044 46.4818 575.757 53.3591 569.412 48.0538C572.849 46.8338 576.381 44.9685 578.859 42.1791C580.491 40.3365 581.588 38.1458 581.623 36.0058C581.693 29.8858 573.273 29.1005 566.777 36.3831C565.868 37.4138 565.087 38.5165 564.445 39.6538C552.307 52.3405 527 56.5645 542.345 32.3498C548.715 34.5165 554.609 34.4365 561.768 29.0218C563.996 27.3698 561.508 23.6338 559.271 25.3125C554.021 29.2671 549.945 29.0218 545.588 27.6151C547.613 24.9045 549.916 22.4685 552.38 20.1418C554.408 18.2205 551.18 14.9165 549.183 16.8111C546.239 19.6271 543.511 22.7378 541.127 25.9871C538.545 25.0151 535.64 24.1485 532.547 24.6911C528.401 25.4205 525.135 28.4231 522.461 31.8378C520.799 34.0018 524.733 36.2751 526.417 34.1365C530.348 29.0485 533.352 29.0485 537.944 30.6978C535.953 33.7298 534.561 36.4485 533.635 38.8938C533.325 38.9978 533.045 39.1578 532.857 39.4445C529.384 43.0151 524.476 46.8898 519.763 48.0231C509.057 50.6258 512.796 38.1738 516.04 31.8378C517.124 29.6951 513.211 28.1538 511.743 30.1031C509.939 32.4885 507.956 34.8418 505.94 37.1151C504.94 35.1938 503.107 33.9498 500.568 34.1365C497.215 34.4111 493.997 36.7298 491.609 39.6205C479.483 52.3325 454.116 56.5858 469.475 32.3498C475.845 34.5165 481.74 34.4365 488.899 29.0218C491.127 27.3698 488.637 23.6338 486.401 25.3125C481.152 29.2671 477.076 29.0218 472.719 27.6151C474.744 24.9045 477.047 22.4685 479.511 20.1418C481.539 18.2205 478.311 14.9165 476.313 16.8111C473.368 19.6271 470.641 22.7378 468.257 25.9871C465.675 25.0151 462.771 24.1485 459.677 24.6911C455.532 25.4205 452.265 28.4231 449.592 31.8378C447.929 34.0018 451.864 36.2751 453.548 34.1365C457.479 29.0485 460.483 29.0485 465.073 30.6978C463.216 33.5285 461.877 36.0885 460.949 38.4071C455.888 44.7631 447.048 42.5378 440.725 42.6938C441.572 36.4938 435.483 30.0511 430.841 28.1818C428.86 27.3965 426.016 27.9125 424.991 31.5405C424.567 33.0418 424.452 34.8738 422.148 38.0045C422.023 38.1285 421.876 38.2285 421.785 38.3911C416.369 45.9938 401.579 50.7058 400.177 39.5805C401.004 38.0111 401.861 36.2245 402.389 34.6511C404.175 29.1005 397.325 29.0218 395.653 34.6511C395.143 36.3551 394.848 38.0631 394.836 39.7151C394.092 41.0938 393.292 42.4485 392.453 43.7751C392.18 44.1831 391.589 45.0751 391.025 45.8591C390.856 43.6685 391.119 40.4711 391.261 38.4151C391.408 36.4658 391.876 33.3005 389.979 32.7058C388.089 32.0805 386.401 34.1365 385.299 35.7365C383.937 37.6858 381.891 41.1765 380.499 43.4511C380.419 40.8245 380.796 37.9031 381.573 35.1938C382.255 32.7578 377.189 32.6738 376.484 35.1111C376.179 36.1871 375.948 37.2871 375.752 38.3925C375.519 38.5245 375.299 38.7005 375.117 38.9578C369.816 45.3205 357.968 50.8671 350.893 46.2645C352.748 42.4765 353.561 37.5231 351.74 34.6231C348.903 30.0791 342.42 32.3498 340.825 37.3885C340.587 36.8698 337.783 34.8138 336.279 36.6831C335.725 37.3658 335.233 38.0911 334.779 38.8325C334.452 38.9551 334.141 39.1405 333.887 39.4725C329.116 45.0471 318.552 51.7631 312.284 50.9231C307.764 50.3285 307.101 46.8338 307.871 42.6658C311.429 41.3938 314.987 39.5245 318.2 37.3298C335.845 25.2858 331.381 13.4818 320.828 17.6258C312.623 20.8711 306.331 31.2431 303.793 38.7951C303.684 39.1205 303.616 39.4431 303.517 39.7685C295.644 47.3165 285.236 48.1445 275.819 41.5018C279.711 38.9858 283.397 35.9271 286.744 32.7298C290.372 29.2938 294.011 24.3938 293.625 19.9805C293.072 13.5618 284.293 12.6978 277.243 21.4418C271.968 27.9951 268.165 37.5471 266.177 44.9685C265.015 49.4058 262.412 60.6418 267.175 62.3458C267.787 62.5911 268.485 62.6151 269.216 62.5111C271.705 62.1031 273.887 60.4271 275.469 58.2605C277.481 55.4991 278.427 52.0605 278.393 49.1631C285.113 52.7898 294.585 51.8458 302.419 46.5111C302.429 51.3898 304.604 55.2698 310.595 56.0138C316.837 56.7978 325.475 52.5658 332.092 47.2311C332.025 51.1658 333.965 54.3405 338.72 54.6311C341.653 54.7938 345.245 53.4111 347.928 50.5698C355.3 54.0978 365.769 53.1871 375.271 45.0631C375.28 45.2898 375.268 45.5298 375.283 45.7525C375.431 47.7258 375.977 51.3311 378.4 51.4898C380.221 51.6525 381.793 49.6231 382.828 48.1885C383.868 46.7271 384.817 45.2098 385.735 43.6965C385.659 46.5098 385.66 51.2471 388.567 52.0085C391.707 52.8165 394.765 48.5698 396.511 45.8871C402.227 54.6165 415.512 51.1325 423.276 43.5791C423.288 43.5685 423.301 43.5685 423.313 43.5578C425.209 41.9365 427.896 38.9578 429.383 34.6231C431.165 34.9525 435.741 38.7671 435.331 42.9351C432.687 43.1018 429.997 43.4511 427.407 44.4258C416.615 48.4591 417.207 58.7751 426.555 58.3125C432.147 58.0431 437.369 52.9831 439.433 47.8125C446 47.6431 453.341 48.8111 459.372 45.6071C459.497 56.4551 474.073 57.2325 487.659 48.5338C487.592 50.8498 488.544 52.7605 491.135 53.1965C494.6 53.7911 499.316 49.9205 502.101 47.4045C503.924 45.7525 505.701 43.9658 507.447 42.0991C506.375 50.0311 510.768 55.1458 519.741 52.9511C523.804 51.9671 528.749 48.9458 532.272 46.1645C532.925 57.0151 548.731 57.1191 562.629 47.1098C562.708 47.9471 562.86 48.7671 563.169 49.5445C564.696 53.4391 569.261 54.7698 573.787 54.8485C582.589 55.0111 593.899 49.4605 600.76 42.2311C603.395 39.7698 599.239 36.9018 597.46 39.1991Z" fill="#5DA477"/>
<path d="M606.243 30.9077C609.753 28.633 613.119 25.8703 616.143 22.9703C618.139 21.0717 621.153 17.605 620.913 15.0583C620.832 14.053 620.207 13.4557 619.141 13.485C617.117 13.5663 614.941 15.6263 613.651 17.2237C610.524 21.0997 608.051 26.1943 606.243 30.9077ZM603.631 39.1463C602.889 42.0197 602.313 45.0797 602.259 47.8183C602.241 48.385 602.253 50.1477 602.565 50.7997C605.079 49.713 607.537 42.153 603.631 39.1463ZM639.684 36.0303C631.283 44.7557 619.081 46.9503 610.948 42.557C610.981 45.4583 610.029 48.9023 608.02 51.6637C606.439 53.8317 604.252 55.513 601.764 55.9183C601.031 56.0263 600.335 56.0023 599.725 55.757C594.953 54.0477 597.563 42.8063 598.728 38.3597C600.716 30.9357 604.523 21.369 609.801 14.809C616.856 6.057 625.639 6.925 626.188 13.3503C626.576 17.7663 622.936 22.669 619.307 26.113C615.959 29.3077 612.269 32.3703 608.372 34.893C618.045 41.7197 628.791 40.717 636.732 32.589C638.453 30.4183 642.869 32.725 639.684 36.0303Z" fill="#F57483"/>
<path d="M644.627 19.1475C645.637 17.6048 647.316 16.3821 649.081 17.0608C650.899 17.7661 650.664 19.5555 649.707 21.0995C648.767 22.5888 647.067 24.0808 645.2 23.3755C643.337 22.6421 643.611 20.7181 644.627 19.1475ZM666.601 34.9195C652.571 50.8235 624.545 52.3688 639.489 27.8181C640.864 25.5155 646.028 27.1435 644.191 29.7701C631.304 48.6581 655.504 41.9901 663.121 31.8568C664.595 29.5808 669.173 31.9915 666.601 34.9195Z" fill="#F57483"/>
<path d="M675.401 41.422C673.387 41.558 671.204 41.8274 669.336 42.5327C668.165 42.9687 665.12 44.4274 666.165 45.7847C666.697 46.518 667.928 46.6794 668.919 46.626C671.66 46.4874 674.095 43.8607 675.401 41.422ZM705.447 35.054C698.871 43.0194 689.131 40.9874 680.683 41.2034C678.616 46.382 673.389 51.4474 667.796 51.7207C658.44 52.1767 657.849 41.858 668.652 37.8167C671.24 36.8434 673.933 36.49 676.575 36.3274C676.989 32.154 672.411 28.3354 670.631 28.0074C669.141 32.3434 666.448 35.3247 664.553 36.9487C662.469 38.7647 659.623 35.7567 661.497 33.7007C665.719 29.0647 665.712 26.762 666.235 24.9207C667.261 21.2887 670.104 20.7714 672.089 21.558C676.731 23.4287 682.823 29.878 681.973 36.0847C688.675 35.9194 698.204 38.4407 703.075 30.5807C704.492 28.3074 708.284 31.6407 705.447 35.054Z" fill="#F57483"/>
<path d="M709.781 27.1129C713.835 25.9209 718.344 23.9422 721.353 21.0996C722.875 19.6609 725.307 16.9529 725.095 14.9196C725.016 13.8902 724.151 13.4849 723.148 13.4849C720.263 13.4556 717.042 16.2742 715.147 18.4956C713.112 20.8529 711.265 24.1049 709.781 27.1129ZM744.64 35.6222C737.695 42.3449 729.129 48.2529 720.056 47.0609C708.443 45.5396 715.177 31.3169 704.068 46.4062C703.597 47.0609 703.032 47.5476 702.258 47.8182C700.487 48.4662 699.276 47.6289 699.063 46.0009C698.535 42.2089 701.262 34.6729 702.9 30.7729C704.906 25.9209 707.908 19.8502 711.458 15.7062C714.727 11.8849 719.5 8.3089 724.278 8.36356C727.494 8.39023 729.979 10.2302 730.288 13.4036C730.691 17.3609 727.662 21.5049 724.524 24.4289C719.99 28.7129 713.043 31.5022 707.253 32.8062C706.611 34.4036 706.006 36.0569 705.488 37.6849C706.258 36.9249 707.008 36.2462 707.764 35.6516C709.998 33.8862 712.46 32.9676 714.508 34.3222C717.31 36.1929 717.449 41.4222 721.737 41.9902C728.853 42.9116 737.512 36.7622 741.472 32.2889C743.478 29.9596 747.567 32.7756 744.64 35.6222Z" fill="#F57483"/>
<path d="M749.149 19.1475C750.161 17.6048 751.84 16.3821 753.605 17.0608C755.421 17.7661 755.184 19.5555 754.229 21.0995C753.289 22.5888 751.591 24.0808 749.723 23.3755C747.861 22.6421 748.135 20.7181 749.149 19.1475ZM771.127 34.9195C757.093 50.8235 729.069 52.3688 744.012 27.8181C745.388 25.5155 750.555 27.1435 748.715 29.7701C735.828 48.6581 760.031 41.9901 767.644 31.8568C769.119 29.5808 773.697 31.9915 771.127 34.9195Z" fill="#F57483"/>
<path d="M782.401 28.7404C788.217 29.7697 781.183 43.2924 789.009 42.2631C794.089 41.5844 801.541 35.1897 803.316 32.6124C805.153 30.0937 809.087 33.1031 807.261 35.1617C803.295 39.6591 793.46 47.5737 786.299 47.3284C778.379 47.0844 779.233 38.1404 779.487 34.5644C776.94 36.4897 773.595 40.5004 771.733 42.9924C771.119 43.7791 770.328 44.8084 769.903 45.6764C769.215 47.1417 767.773 47.0604 766.461 47.2231C765.645 47.3284 765.024 46.9231 764.924 46.1897C764.581 44.0217 765.171 39.3084 765.645 37.0297C766.185 34.4031 767.061 31.6404 768.473 29.0937C769.776 26.7617 774.297 28.1698 772.997 30.4991C771.848 32.5618 771.169 34.8924 770.767 37.0057C773.283 34.0777 778.667 28.0337 782.401 28.7404Z" fill="#F57483"/>
<path d="M814.194 32.9673C813.005 32.2619 811.69 32.2073 810.228 32.8326C808.765 33.4299 807.537 34.3793 806.582 35.6219C805.721 36.8166 805.229 37.8459 805.133 38.7139C805.028 39.6059 805.294 40.1219 805.872 40.2846C806.481 40.4459 807.402 40.0379 808.64 39.0619C810.768 37.2766 812.638 35.2433 814.194 32.9673ZM812.14 49.9313C810.921 50.3366 809.525 50.9046 807.966 51.6633C806.385 52.4259 804.928 53.3179 803.56 54.3753C802.203 55.4046 801.217 56.5419 800.677 57.7619C800.236 58.8993 800.313 59.8206 800.857 60.5233C801.419 61.2593 802.287 61.5539 803.424 61.4486C804.592 61.3406 805.874 60.5806 807.256 59.1699C808.654 57.7886 809.966 55.5126 811.237 52.3966C811.533 51.5819 811.84 50.7419 812.14 49.9313ZM867.322 30.1753C868.256 30.2299 868.97 30.5806 869.501 31.2326C870.002 31.8833 869.954 32.6699 869.366 33.5619C865.886 38.0593 862.233 41.2846 858.444 43.2113C854.625 45.1339 850.685 46.2979 846.632 46.6793C842.6 47.0846 838.448 47.2233 834.263 47.0846C831.596 47.0313 828.881 47.0606 826.18 47.1419C823.477 47.2233 820.772 47.5166 818.042 48.0073L817.965 48.3033C817.464 49.8739 816.91 51.4206 816.301 52.9939C815.694 54.6446 814.866 56.3259 813.84 58.0353C812.813 59.7406 811.588 61.2833 810.161 62.6673C808.738 64.0486 807.102 65.1059 805.273 65.8646C802.992 66.7059 800.987 66.8113 799.224 66.2166C797.468 65.5953 796.224 64.4846 795.53 62.8299C794.828 61.2019 794.945 59.2513 795.818 57.0046C796.81 54.8099 798.302 52.8833 800.344 51.2313C802.356 49.5766 804.601 48.1713 807.018 47.0313C809.426 45.9206 811.72 45.0259 813.893 44.4033C814.464 42.4766 815.013 40.5273 815.536 38.5766C814.068 40.3113 812.375 41.8819 810.427 43.2926C808.501 44.7286 806.501 45.4059 804.394 45.4059C803.145 45.3259 802.116 44.9166 801.337 44.1846C800.56 43.4553 800.061 42.4766 799.893 41.2846C799.692 39.4166 800.128 37.4926 801.191 35.5406C802.287 33.5619 803.721 31.8566 805.505 30.4486C807.39 28.9566 809.384 27.9833 811.489 27.5206C813.56 27.0619 815.458 27.2473 817.208 28.0886C817.845 26.9233 818.406 25.7313 818.944 24.5393C819.33 23.8099 819.968 23.3473 820.848 23.1859C821.742 22.9939 822.529 23.0739 823.237 23.3753C823.933 23.6993 824.218 24.2419 824.078 24.9726C823.99 25.2966 823.909 25.5966 823.856 25.9206C823.817 26.0553 823.801 26.2179 823.765 26.3566C822.525 31.8833 821.148 37.4379 819.584 42.9686L819.346 43.7526C821.874 43.4006 824.396 43.1819 826.882 43.1006C829.374 42.9926 831.819 42.9686 834.227 42.9686C838.297 43.0193 842.216 42.8579 845.936 42.5059C849.665 42.1286 853.129 41.1219 856.35 39.4979C859.554 37.8459 862.413 35.1619 864.929 31.4219C865.601 30.5299 866.388 30.1246 867.322 30.1753Z" fill="#F57483"/>
</svg>
